<?xml version="1.0" encoding="UTF-8" standalone="no"?>
<!-- Created with Inkscape (http://www.inkscape.org/) -->

<svg
   xmlns:dc="http://purl.org/dc/elements/1.1/"
   xmlns:cc="http://creativecommons.org/ns#"
   xmlns:rdf="http://www.w3.org/1999/02/22-rdf-syntax-ns#"
   xmlns:svg="http://www.w3.org/2000/svg"
   xmlns="http://www.w3.org/2000/svg"
   xmlns:sodipodi="http://sodipodi.sourceforge.net/DTD/sodipodi-0.dtd"
   xmlns:inkscape="http://www.inkscape.org/namespaces/inkscape"
   version="1.1"
   width="146.76569"
   height="150.14246"
   id="svg2"
   xml:space="preserve"
   inkscape:version="0.91 r13725"
   sodipodi:docname="empty.svg"><sodipodi:namedview
     pagecolor="#ffffff"
     bordercolor="#666666"
     borderopacity="1"
     objecttolerance="10"
     gridtolerance="10"
     guidetolerance="10"
     inkscape:pageopacity="0"
     inkscape:pageshadow="2"
     inkscape:window-width="1855"
     inkscape:window-height="1056"
     id="namedview25"
     showgrid="false"
     inkscape:zoom="4.4458364"
     inkscape:cx="75.137917"
     inkscape:cy="81.790828"
     inkscape:window-x="65"
     inkscape:window-y="24"
     inkscape:window-maximized="1"
     inkscape:current-layer="svg2" /><metadata
     id="metadata8"><rdf:RDF><cc:Work
         rdf:about=""><dc:format>image/svg+xml</dc:format><dc:type
           rdf:resource="http://purl.org/dc/dcmitype/StillImage" /><dc:title /></cc:Work></rdf:RDF></metadata><defs
     id="defs6"><clipPath
       id="clipPath20"><path
         d="M 0,0 310,0 310,236 0,236 0,0 z"
         id="path22" /></clipPath><clipPath
       id="clipPath24"><path
         d="m 0,-0.2 309.7,0 0,236.2 L 0,236 0,-0.2 z"
         id="path26" /></clipPath><clipPath
       id="clipPath270"><path
         d="M 0,0 612,0 612,518 0,518 0,0 z"
         id="path272" /></clipPath><clipPath
       id="clipPath318"><path
         d="M 0,0 600,0 600,280 0,280 0,0 z"
         id="path320" /></clipPath><clipPath
       id="clipPath346"><path
         d="M 0,0 400,0 400,425 0,425 0,0 z"
         id="path348" /></clipPath></defs><g
     id="maze"><path
       d="m 0.6748625,0.5 145.5325675,0 0,149.04592 -145.5325675,0 z"
       id="path5006"
       style="fill:none;stroke:#000000;stroke-width:1px;stroke-linecap:butt;stroke-linejoin:miter;stroke-opacity:1" /></g><rect
     width="1"
     height="1"
     x="72.882843"
     y="74.571228"
     id="start"
     style="fill:#000000;fill-opacity:1;stroke:none" /><rect
     width="1"
     height="1"
     x="72.882843"
     y="-3.046463"
     id="end"
     style="fill:#000000;fill-opacity:1;stroke:none" /></svg>