<?xml version="1.0" encoding="UTF-8" standalone="no"?>
<!-- Created with Inkscape (http://www.inkscape.org/) -->

<svg
   xmlns:dc="http://purl.org/dc/elements/1.1/"
   xmlns:cc="http://creativecommons.org/ns#"
   xmlns:rdf="http://www.w3.org/1999/02/22-rdf-syntax-ns#"
   xmlns:svg="http://www.w3.org/2000/svg"
   xmlns="http://www.w3.org/2000/svg"
   version="1.1"
   width="200.44772"
   height="127.77758"
   id="svg2"
   xml:space="preserve"><metadata
     id="metadata8"><rdf:RDF><cc:Work
         rdf:about=""><dc:format>image/svg+xml</dc:format><dc:type
           rdf:resource="http://purl.org/dc/dcmitype/StillImage" /><dc:title></dc:title></cc:Work></rdf:RDF></metadata><defs
     id="defs6"><clipPath
       id="clipPath20"><path
         d="M 0,0 310,0 310,236 0,236 0,0 z"
         id="path22" /></clipPath><clipPath
       id="clipPath24"><path
         d="m 0,-0.2 309.7,0 0,236.2 L 0,236 0,-0.2 z"
         id="path26" /></clipPath><clipPath
       id="clipPath270"><path
         d="M 0,0 612,0 612,518 0,518 0,0 z"
         id="path272" /></clipPath><clipPath
       id="clipPath318"><path
         d="M 0,0 600,0 600,280 0,280 0,0 z"
         id="path320" /></clipPath><clipPath
       id="clipPath346"><path
         d="M 0,0 400,0 400,425 0,425 0,0 z"
         id="path348" /></clipPath></defs><rect
     width="1"
     height="1"
     x="13.99675"
     y="114.95859"
     id="start"
     style="fill:#000000;fill-opacity:1;stroke:none" /><rect
     width="1"
     height="1"
     x="179.33955"
     y="13.262325"
     id="end"
     style="fill:#000000;fill-opacity:1;stroke:none" /><g
     id="maze"><rect
       width="199.44772"
       height="126.60316"
       x="0.50000399"
       y="0.6744262"
       id="rect3010"
       style="fill:none;stroke:#000000;stroke-width:1" /><path
       d="m 158.76421,0.5 0,32.164926 17.99436,0 0,75.126474"
       id="path3014"
       style="fill:none;stroke:#000000;stroke-width:1px;stroke-linecap:butt;stroke-linejoin:miter;stroke-opacity:1" /><path
       d="m 127.92449,127.13534 0,-26.31676"
       id="path3018"
       style="fill:none;stroke:#000000;stroke-width:1px;stroke-linecap:butt;stroke-linejoin:miter;stroke-opacity:1" /><path
       d="m 28.25634,101.99196 0,-69.728161 54.65788,0"
       id="path3020"
       style="fill:none;stroke:#000000;stroke-width:1px;stroke-linecap:butt;stroke-linejoin:miter;stroke-opacity:1" /><path
       d="m 80.0145,0.9498591 0,13.4957739"
       id="path3022"
       style="fill:none;stroke:#000000;stroke-width:1px;stroke-linecap:butt;stroke-linejoin:miter;stroke-opacity:1" /><path
       d="M 71.46717,108.46619 139.3959,40.537461"
       id="path3024"
       style="fill:none;stroke:#000000;stroke-width:1px;stroke-linecap:butt;stroke-linejoin:miter;stroke-opacity:1" /><path
       d="M 92.16069,87.097878 65.05668,59.993867"
       id="path3026"
       style="fill:none;stroke:#000000;stroke-width:1px;stroke-linecap:butt;stroke-linejoin:miter;stroke-opacity:1" /><path
       d="m 65.07398,59.840733 0,-27.356464"
       id="path3028"
       style="fill:none;stroke:#000000;stroke-width:1px;stroke-linecap:butt;stroke-linejoin:miter;stroke-opacity:1" /><path
       d="m 108.35562,71.577739 67.92873,0"
       id="path3030"
       style="fill:none;stroke:#000000;stroke-width:1px;stroke-linecap:butt;stroke-linejoin:miter;stroke-opacity:1" /></g></svg>