<?xml version="1.0" encoding="UTF-8" standalone="no"?>
<!-- Created with Inkscape (http://www.inkscape.org/) -->

<svg
   xmlns:dc="http://purl.org/dc/elements/1.1/"
   xmlns:cc="http://creativecommons.org/ns#"
   xmlns:rdf="http://www.w3.org/1999/02/22-rdf-syntax-ns#"
   xmlns:svg="http://www.w3.org/2000/svg"
   xmlns="http://www.w3.org/2000/svg"
   version="1.1"
   width="200.44772"
   height="144.69025"
   id="svg2"
   xml:space="preserve"><metadata
     id="metadata8"><rdf:RDF><cc:Work
         rdf:about=""><dc:format>image/svg+xml</dc:format><dc:type
           rdf:resource="http://purl.org/dc/dcmitype/StillImage" /><dc:title></dc:title></cc:Work></rdf:RDF></metadata><defs
     id="defs6"><clipPath
       id="clipPath20"><path
         d="M 0,0 310,0 310,236 0,236 0,0 z"
         id="path22" /></clipPath><clipPath
       id="clipPath24"><path
         d="m 0,-0.2 309.7,0 0,236.2 L 0,236 0,-0.2 z"
         id="path26" /></clipPath><clipPath
       id="clipPath270"><path
         d="M 0,0 612,0 612,518 0,518 0,0 z"
         id="path272" /></clipPath><clipPath
       id="clipPath318"><path
         d="M 0,0 600,0 600,280 0,280 0,0 z"
         id="path320" /></clipPath><clipPath
       id="clipPath346"><path
         d="M 0,0 400,0 400,425 0,425 0,0 z"
         id="path348" /></clipPath></defs><rect
     width="1"
     height="1"
     x="13.996746"
     y="131.87126"
     id="start"
     style="fill:#000000;fill-opacity:1;stroke:none" /><rect
     width="1"
     height="1"
     x="189.47009"
     y="133.65842"
     id="end"
     style="fill:#000000;fill-opacity:1;stroke:none" /><g
     id="maze"><path
       d="m 0.5,0.66682732 199.44772,0 0,143.52342268 -199.44772,0 z"
       id="rect3010"
       style="fill:none;stroke:#000000;stroke-width:1" /><path
       d="m 179.50203,143.88577 0,-124.980521"
       id="path3023"
       style="fill:none;stroke:#000000;stroke-width:1px;stroke-linecap:butt;stroke-linejoin:miter;stroke-opacity:1" /><path
       d="m 158.413,0.5 0,126.13447"
       id="path3025"
       style="fill:none;stroke:#000000;stroke-width:1px;stroke-linecap:butt;stroke-linejoin:miter;stroke-opacity:1" /><path
       d="m 40.46152,143.70936 0,-35.55709"
       id="path3027"
       style="fill:none;stroke:#000000;stroke-width:1px;stroke-linecap:butt;stroke-linejoin:miter;stroke-opacity:1" /><path
       d="m 60.814893,108.88794 97.107657,0"
       id="path3029"
       style="fill:none;stroke:#000000;stroke-width:1px;stroke-linecap:butt;stroke-linejoin:miter;stroke-opacity:1" /><path
       d="m 20.843811,93.438992 75.7734,-75.7734"
       id="path3031"
       style="fill:none;stroke:#000000;stroke-width:1px;stroke-linecap:butt;stroke-linejoin:miter;stroke-opacity:1" /><path
       d="M 54.439137,59.598444 21.211643,26.37095"
       id="path3033"
       style="fill:none;stroke:#000000;stroke-width:1px;stroke-linecap:butt;stroke-linejoin:miter;stroke-opacity:1" /><path
       d="m 128.98643,0.745318 0,88.279689"
       id="path3035"
       style="fill:none;stroke:#000000;stroke-width:1px;stroke-linecap:butt;stroke-linejoin:miter;stroke-opacity:1" /><path
       d="m 129.23166,46.11127 10.54451,0"
       id="path3037"
       style="fill:none;stroke:#000000;stroke-width:1px;stroke-linecap:butt;stroke-linejoin:miter;stroke-opacity:1" /><path
       d="m 92.693669,108.39749 0,-55.910465"
       id="path3039"
       style="fill:none;stroke:#000000;stroke-width:1px;stroke-linecap:butt;stroke-linejoin:miter;stroke-opacity:1" /><path
       d="M 92.93889,85.101465 106.30346,71.736901"
       id="path3041"
       style="fill:none;stroke:#000000;stroke-width:1px;stroke-linecap:butt;stroke-linejoin:miter;stroke-opacity:1" /><path
       d="m 92.693669,84.365801 -31.633555,0"
       id="path3045"
       style="fill:none;stroke:#000000;stroke-width:1px;stroke-linecap:butt;stroke-linejoin:miter;stroke-opacity:1" /></g></svg>