<?xml version="1.0" encoding="UTF-8" standalone="no"?>
<!-- Created with Inkscape (http://www.inkscape.org/) -->

<svg
   xmlns:dc="http://purl.org/dc/elements/1.1/"
   xmlns:cc="http://creativecommons.org/ns#"
   xmlns:rdf="http://www.w3.org/1999/02/22-rdf-syntax-ns#"
   xmlns:svg="http://www.w3.org/2000/svg"
   xmlns="http://www.w3.org/2000/svg"
   xmlns:sodipodi="http://sodipodi.sourceforge.net/DTD/sodipodi-0.dtd"
   xmlns:inkscape="http://www.inkscape.org/namespaces/inkscape"
   id="svg2"
   version="1.1"
   inkscape:version="0.48.4 r9939"
   width="196.49802"
   height="70.478271"
   xml:space="preserve"
   sodipodi:docname="mazes.svg"><metadata
     id="metadata8"><rdf:RDF><cc:Work
         rdf:about=""><dc:format>image/svg+xml</dc:format><dc:type
           rdf:resource="http://purl.org/dc/dcmitype/StillImage" /></cc:Work></rdf:RDF></metadata><defs
     id="defs6"><clipPath
       clipPathUnits="userSpaceOnUse"
       id="clipPath20"><path
         d="M 0,0 310,0 310,236 0,236 0,0 z"
         id="path22"
         inkscape:connector-curvature="0" /></clipPath><clipPath
       clipPathUnits="userSpaceOnUse"
       id="clipPath24"><path
         d="m 0,-0.2 309.7,0 0,236.2 L 0,236 0,-0.2 z"
         clip-rule="evenodd"
         id="path26"
         inkscape:connector-curvature="0" /></clipPath><clipPath
       clipPathUnits="userSpaceOnUse"
       id="clipPath270"><path
         d="M 0,0 612,0 612,518 0,518 0,0 z"
         id="path272"
         inkscape:connector-curvature="0" /></clipPath><clipPath
       clipPathUnits="userSpaceOnUse"
       id="clipPath318"><path
         d="M 0,0 600,0 600,280 0,280 0,0 z"
         id="path320"
         inkscape:connector-curvature="0" /></clipPath><clipPath
       clipPathUnits="userSpaceOnUse"
       id="clipPath346"><path
         d="M 0,0 400,0 400,425 0,425 0,0 z"
         id="path348"
         inkscape:connector-curvature="0" /></clipPath></defs><sodipodi:namedview
     pagecolor="#ffffff"
     bordercolor="#666666"
     borderopacity="1"
     objecttolerance="10"
     gridtolerance="10"
     guidetolerance="10"
     inkscape:pageopacity="0"
     inkscape:pageshadow="2"
     inkscape:window-width="1918"
     inkscape:window-height="1055"
     id="namedview4"
     showgrid="false"
     inkscape:zoom="1.9070707"
     inkscape:cx="-108.04691"
     inkscape:cy="84.281054"
     inkscape:window-x="1920"
     inkscape:window-y="0"
     inkscape:window-maximized="1"
     inkscape:current-layer="g10"
     fit-margin-top="0"
     fit-margin-left="0"
     fit-margin-right="0"
     fit-margin-bottom="0" /><g
     id="g10"
     inkscape:groupmode="layer"
     inkscape:label="Lehman, Stanley - 2011 - Abandoning objectives Evolution through the search for novelty alone-annotated"
     transform="matrix(1.25,0,0,-1.25,195.89647,-626.62904)"><g
       id="g5017"
       transform="matrix(2.1466058,0,0,2.1466058,-18.717671,506.20786)"><path
         inkscape:connector-curvature="0"
         d="m 12.695769,-480.85076 12.013321,-14.46048 m -19.5031095,22.9143 19.0581735,19.50311 m -29.8849975,-19.72558 12.606576,-19.8739 m -26.9929035,24.10081 20.9120843,15.49867 m -31.6647513,-14.01554 7.638102,-14.83126 m -18.909863,16.31439 14.682952,12.45826 m -19.725582,-20.24468 61.846375,-22.17274 m -78.873112,42.42855 95.224576,0 0,-42.47352 -95.224576,0 z"
         style="fill:none;stroke:#ff0000;stroke-width:0.37268138px;stroke-linecap:butt;stroke-linejoin:miter;stroke-opacity:1"
         id="path4956" /><path
         transform="matrix(0.11133944,0,0,-0.11133944,-57.565416,-353.79159)"
         d="m 11.772317,943.37421 c 0,1.17746 -0.954526,2.13199 -2.1319943,2.13199 -1.1774679,0 -2.1319943,-0.95453 -2.1319943,-2.13199 0,-1.17747 0.9545264,-2.132 2.1319943,-2.132 1.1774683,0 2.1319943,0.95453 2.1319943,2.132 z"
         sodipodi:ry="2.1319942"
         sodipodi:rx="2.1319942"
         sodipodi:cy="943.37421"
         sodipodi:cx="9.6403227"
         id="path4960"
         style="fill:none;stroke:#ff0000;stroke-width:3.3472538;stroke-miterlimit:4;stroke-opacity:1;stroke-dasharray:none;stroke-dashoffset:0"
         sodipodi:type="arc" /><path
         transform="matrix(0.19080033,0,0,-0.19080033,2.7691069,-298.61584)"
         d="m 111.14179,976.0957 c 0,0.66553 -0.53951,1.20504 -1.20504,1.20504 -0.66552,0 -1.20504,-0.53951 -1.20504,-1.20504 0,-0.66552 0.53952,-1.20504 1.20504,-1.20504 0.66553,0 1.20504,0.53952 1.20504,1.20504 z"
         sodipodi:ry="1.2050403"
         sodipodi:rx="1.2050403"
         sodipodi:cy="976.0957"
         sodipodi:cx="109.93675"
         id="path4964"
         style="fill:none;stroke:#ff0000;stroke-width:1.95325327;stroke-miterlimit:4;stroke-opacity:1;stroke-dasharray:none;stroke-dashoffset:0"
         sodipodi:type="arc" /></g><g
       id="g5034"
       transform="translate(-114.52119,124.16949)"><path
         d="m -139.20268,-508.54189 -17.44686,26.22656 m 31.62946,-16.43381 62.921249,-35.2314 m 21.94927,9.79277 -65.285019,34.21833 m -19.5855,22.06183 47.500477,15.53333 m -79.242507,-11.81882 31.8546,-2.25123 0,-64.27196 m 32.079693,-4.38985 -18.910133,-22.62464 m -44.88427,119.31397 116.426051,0 0,-119.23674 -116.426051,0 z"
         style="fill:none;stroke:#ff0000;stroke-width:0.80000001px;stroke-linecap:butt;stroke-linejoin:miter;stroke-opacity:1"
         id="path5006"
         inkscape:connector-curvature="0" /><path
         sodipodi:type="arc"
         style="fill:none;stroke:#ff0000;stroke-width:3.3472538;stroke-miterlimit:4;stroke-opacity:1;stroke-dasharray:none;stroke-dashoffset:0"
         id="path5011"
         sodipodi:cx="9.6403227"
         sodipodi:cy="943.37421"
         sodipodi:rx="2.1319942"
         sodipodi:ry="2.1319942"
         d="m 11.772317,943.37421 c 0,1.17746 -0.954526,2.13199 -2.1319943,2.13199 -1.1774679,0 -2.1319943,-0.95453 -2.1319943,-2.13199 0,-1.17747 0.9545264,-2.132 2.1319943,-2.132 1.1774683,0 2.1319943,0.95453 2.1319943,2.132 z"
         transform="matrix(0.23900189,0,0,-0.23900189,-139.31473,-321.67902)" /><path
         sodipodi:type="arc"
         style="fill:none;stroke:#ff0000;stroke-width:3.59135485;stroke-miterlimit:4;stroke-opacity:1;stroke-dasharray:none;stroke-dashoffset:0"
         id="path5013"
         sodipodi:cx="109.93675"
         sodipodi:cy="976.0957"
         sodipodi:rx="1.2050403"
         sodipodi:ry="1.2050403"
         d="m 111.14179,976.0957 c 0,0.66553 -0.53951,1.20504 -1.20504,1.20504 -0.66552,0 -1.20504,-0.53951 -1.20504,-1.20504 0,-0.66552 0.53952,-1.20504 1.20504,-1.20504 0.66553,0 1.20504,0.53952 1.20504,1.20504 z"
         transform="matrix(0.22275717,0,0,-0.22275717,-164.47776,-228.14563)" /></g><path
       sodipodi:type="arc"
       style="fill:#ff0000;fill-opacity:1;stroke:none"
       id="path5029"
       sodipodi:cx="-55.061073"
       sodipodi:cy="-12.762204"
       sodipodi:rx="3.1516438"
       sodipodi:ry="3.1516438"
       d="m -51.90943,-12.762204 a 3.1516438,3.1516438 0 1 1 -6.303287,0 3.1516438,3.1516438 0 1 1 6.303287,0 z"
       transform="matrix(0.76150739,0,0,-0.76150739,-158.95794,-500.93316)" /></g></svg>